<svg width="16" height="16" viewBox="0 0 16 16" fill="none" xmlns="http://www.w3.org/2000/svg">
<path d="M2 16H9C10.1031 16 11 15.1047 11 14V7C11 5.89531 10.1047 5 9 5H2C0.895312 5 0 5.89531 0 7V14C0 15.1047 0.896875 16 2 16ZM1.5 7C1.5 6.72431 1.72431 6.5 2 6.5H9C9.275 6.5 9.5 6.725 9.5 7V14C9.5 14.2757 9.27569 14.5 9 14.5H2C1.72431 14.5 1.5 14.2757 1.5 14V7ZM6.5 2C6.5 1.72431 6.72431 1.5 7 1.5H14C14.2757 1.5 14.5 1.72431 14.5 2V9C14.5 9.27569 14.2757 9.5 14 9.5H12V11H14C15.1047 11 16 10.1031 16 9V2C16 0.895312 15.1047 0 14 0H7C5.89531 0 5 0.895312 5 2V4H6.5V2Z" fill="#0075FF"/>
</svg>
