<svg width="20" height="20" viewBox="0 0 20 20" fill="none" xmlns="http://www.w3.org/2000/svg">
<path d="M10 0C4.47619 0 0 4.47619 0 10C0 15.5238 4.47619 20 10 20C15.5238 20 20 15.5238 20 10C20 4.47619 15.5238 0 10 0ZM14.0952 16.9524C14.5714 15.2381 14.8571 13.4286 14.7619 11.3343C15.3333 11.5238 15.619 11.62 16.0952 11.7143C15.5238 10.1905 14.8571 8.7619 14 7.42857C13.2381 8.85714 12.1905 10.1905 11.2381 11.3343L12.9524 11.2381C11.5238 13.8095 9.42952 15.0476 6.8581 15.4286C6.28667 12.5714 6.66762 7.80952 10.001 5.52381L10.2867 7.14286C10.9533 6.09524 12.1914 4.7619 13.1438 3.80952C11.619 3.2381 9.90476 3.04762 8.28571 3.33333C8.57143 3.52381 8.85714 3.90476 9.14286 4.09524C5.42857 5.61905 3.42857 8.19048 2.09524 11.2381C2 10.8571 2 10.4762 2 10C2 5.52381 5.61905 1.90476 10.0952 1.90476C14.5714 1.90476 18.1905 5.52381 18.1905 10C18.0952 12.9524 16.4762 15.619 14.0952 16.9524Z" fill="#fff"/>
</svg>
